<svg fill="none" xmlns="http://www.w3.org/2000/svg" viewBox="0 0 640 600" width="640" height="600">
  <rect x="284.09" y="26" width="260.71" height="260.71" rx="24" transform="rotate(56.92 284.09 26)" fill="#FF5975"/>
  <rect x="589.94" y="276.97" width="185.85" height="185.85" rx="24" transform="rotate(107.4 589.94 276.97)" fill="#E5EEFF"/>
  <rect x="176.21" y="219.37" width="185.85" height="185.85" rx="24" transform="rotate(44.9 176.2 219.37)" fill="#FFB700"/>
  <path fill-rule="evenodd" clip-rule="evenodd" d="M373 385.37l10.86 6.41-2.75 1.83 2.89 3.93-2.75 1.83-2.89-3.92-2.75 1.83-2.61-11.9z" fill="#1A1A1A"/>
  <path d="M201.25 117.37a2.75 2.75 0 012.75-2.75h295a2.75 2.75 0 012.75 2.75v374a2.75 2.75 0 01-2.75 2.75H204a2.75 2.75 0 01-2.75-2.75v-374z" fill="#FAFAFA" stroke="#F4F4F4" stroke-width="2.5"/>
  <rect x="225.85" y="141.33" width="193.59" height="4.75" rx="2.37" fill="#F4F4F4"/>
  <rect x="304" y="334.37" width="135" height="5" rx="2.5" fill="#F4F4F4"/>
  <rect x="225.85" y="153.99" width="214.69" height="4.75" rx="2.37" fill="#F4F4F4"/>
  <rect x="304" y="347.37" width="157" height="4" rx="2" fill="#F4F4F4"/>
  <rect x="225.85" y="167.7" width="156.67" height="4.75" rx="2.37" fill="#F4F4F4"/>
  <rect x="304" y="360.75" width="156.67" height="4.75" rx="2.37" fill="#F4F4F4"/>
  <rect x="225.85" y="207.79" width="251.62" height="4.75" rx="2.37" fill="#F4F4F4"/>
  <rect x="225.85" y="400.83" width="251.62" height="4.75" rx="2.37" fill="#F4F4F4"/>
  <rect x="225.85" y="218.87" width="241.06" height="4.75" rx="2.37" fill="#F4F4F4"/>
  <rect x="225.85" y="411.91" width="241.06" height="4.75" rx="2.37" fill="#F4F4F4"/>
  <rect x="225.85" y="229.95" width="246.34" height="4.75" rx="2.37" fill="#F4F4F4"/>
  <rect x="225.85" y="422.99" width="246.34" height="4.75" rx="2.37" fill="#F4F4F4"/>
  <rect x="225.85" y="241.03" width="246.34" height="4.75" rx="2.37" fill="#F4F4F4"/>
  <rect x="225.85" y="252.1" width="230.51" height="4.75" rx="2.37" fill="#F4F4F4"/>
  <rect x="225.85" y="263.18" width="230.51" height="4.75" rx="2.37" fill="#F4F4F4"/>
  <rect x="225.85" y="274.26" width="230.51" height="4.75" rx="2.37" fill="#F4F4F4"/>
  <rect x="225.85" y="285.34" width="230.51" height="4.75" rx="2.37" fill="#F4F4F4"/>
  <rect x="304" y="312.24" width="109.19" height="4.75" rx="2.37" fill="#F4F4F4"/>
  <rect x="304" y="371.37" width="125" height="5" rx="2.5" fill="#F4F4F4"/>
  <rect x="304" y="323.31" width="109.19" height="4.75" rx="2.37" fill="#F4F4F4"/>
  <path d="M176.25 141.37a2.75 2.75 0 012.75-2.75h295a2.75 2.75 0 012.75 2.75v374a2.75 2.75 0 01-2.75 2.75H179a2.75 2.75 0 01-2.75-2.75v-374z" fill="#fff" stroke="#E8E8E8" stroke-width="2.5"/>
  <path d="M200.85 167.7a2.37 2.37 0 012.37-2.37h188.84a2.37 2.37 0 110 4.75H203.22a2.37 2.37 0 01-2.37-2.38zM279 360.87a2.5 2.5 0 012.5-2.5h130a2.5 2.5 0 110 5h-130a2.5 2.5 0 01-2.5-2.5zM200.85 180.36a2.37 2.37 0 012.37-2.37h209.94a2.37 2.37 0 110 4.75H203.22a2.37 2.37 0 01-2.37-2.38zM279 373.37c0-1.1.9-2 2-2h153a2 2 0 110 4H281a2 2 0 01-2-2zM200.85 194.08a2.37 2.37 0 012.37-2.38h151.92a2.37 2.37 0 110 4.75H203.22a2.37 2.37 0 01-2.37-2.37zM279 387.12a2.37 2.37 0 012.37-2.38H433.3a2.37 2.37 0 110 4.75H281.37a2.37 2.37 0 01-2.37-2.37zM200.85 234.17a2.37 2.37 0 012.37-2.38H450.1a2.37 2.37 0 010 4.75H203.22a2.37 2.37 0 01-2.37-2.37zM200.85 427.2a2.37 2.37 0 012.37-2.37H450.1a2.37 2.37 0 010 4.75H203.22a2.37 2.37 0 01-2.37-2.37zM200.85 245.25a2.37 2.37 0 012.37-2.38h236.32a2.37 2.37 0 110 4.75H203.22a2.37 2.37 0 01-2.37-2.38zM200.85 438.29a2.37 2.37 0 012.37-2.38h236.32a2.37 2.37 0 110 4.75H203.22a2.37 2.37 0 01-2.37-2.37zM200.85 256.32a2.37 2.37 0 012.37-2.37h241.6a2.37 2.37 0 110 4.75h-241.6a2.37 2.37 0 01-2.37-2.38zM200.85 449.36a2.37 2.37 0 012.37-2.37h241.6a2.37 2.37 0 110 4.75h-241.6a2.37 2.37 0 01-2.37-2.38zM200.85 267.4a2.37 2.37 0 012.37-2.37h241.6a2.37 2.37 0 010 4.74h-241.6a2.37 2.37 0 01-2.37-2.37zM200.85 278.48a2.37 2.37 0 012.37-2.38H429a2.37 2.37 0 010 4.75H203.22a2.37 2.37 0 01-2.37-2.37zM200.85 289.55a2.37 2.37 0 012.37-2.37H429a2.37 2.37 0 010 4.75H203.22a2.37 2.37 0 01-2.37-2.38zM200.85 300.63a2.37 2.37 0 012.37-2.37H429a2.37 2.37 0 010 4.75H203.22a2.37 2.37 0 01-2.37-2.38zM200.85 311.71a2.37 2.37 0 012.37-2.37H429a2.37 2.37 0 010 4.74H203.22a2.37 2.37 0 01-2.37-2.37zM279 338.61a2.37 2.37 0 012.37-2.37h104.45a2.37 2.37 0 010 4.75H281.37a2.37 2.37 0 01-2.37-2.38zM279 397.87a2.5 2.5 0 012.5-2.5h120a2.5 2.5 0 110 5h-120a2.5 2.5 0 01-2.5-2.5zM279 349.69a2.37 2.37 0 012.37-2.38h104.45a2.37 2.37 0 010 4.75H281.37a2.37 2.37 0 01-2.37-2.37zM200 335.37a6 6 0 016-6h53a6 6 0 016 6v60a6 6 0 01-6 6h-53a6 6 0 01-6-6v-60z" fill="#F4F4F4"/>
  <path fill-rule="evenodd" clip-rule="evenodd" d="M114.84 385.98a1 1 0 01.88-1.11 29.1 29.1 0 003.25-.59 1 1 0 01.47 1.95c-1.12.26-2.28.47-3.48.62a1 1 0 01-1.11-.87zm3.33-185.57c.07 2.23.17 4.45.36 6.64a1 1 0 01-1.99.17c-.2-2.24-.3-4.5-.37-6.75a1 1 0 112-.06zM117 190.26a1 1 0 01-1.03-.97c-.03-1.13-.07-2.24-.13-3.33a51.47 51.47 0 01-.06-3.3 1 1 0 012 .02c-.02 1.1 0 2.16.06 3.18.06 1.1.1 2.23.13 3.37a1 1 0 01-.97 1.03zm2.24 26.9a1 1 0 011.25.66 33 33 0 001.1 3.06 43.8 43.8 0 011.25 3.38 1 1 0 11-1.9.63c-.36-1.1-.74-2.19-1.18-3.23a34.83 34.83 0 01-1.18-3.25 1 1 0 01.66-1.25zm-1.64-44.26a1 1 0 01-.82-1.15 86.9 86.9 0 011.3-6.43 1 1 0 111.95.47 85.72 85.72 0 00-1.28 6.28 1 1 0 01-1.15.83zm11.1 208.2a1 1 0 01.23-1.4 34.89 34.89 0 005-4.37 1 1 0 011.45 1.38 36.95 36.95 0 01-5.29 4.63 1 1 0 01-1.4-.24zm-5.23-139.27c.05 2.07.2 4.19.43 6.26a1 1 0 11-1.99.22c-.23-2.12-.39-4.3-.44-6.42a1 1 0 112-.06zm1 15.84a1 1 0 011.21.73c.28 1.12.56 2.12.85 2.98.33 1 .68 2.01 1.04 3.03a1 1 0 11-1.89.67l-1.05-3.07c-.3-.92-.6-1.97-.89-3.13a1 1 0 01.73-1.21zm-1.36-25.37a1 1 0 01-.72-1.22 14.57 14.57 0 013.18-6.16 1 1 0 111.5 1.32 12.55 12.55 0 00-2.74 5.34 1 1 0 01-1.22.72zm2.55 2.31a1 1 0 011.38.3c.6.9 1.28 1.75 2.09 2.54.5.48 1.07.92 1.72 1.32a1 1 0 11-1.05 1.7c-.76-.46-1.45-1-2.06-1.58-.93-.9-1.7-1.87-2.37-2.9a1 1 0 01.29-1.38zm-3.76-78.44a1 1 0 01-.57-1.3 77.1 77.1 0 012.6-6.03 1 1 0 111.8.87 75.31 75.31 0 00-2.54 5.88 1 1 0 01-1.29.58zm8.24 117.67a1 1 0 011.3.53c.84 1.97 1.7 3.93 2.6 5.87a1 1 0 11-1.8.84c-.92-1.96-1.8-3.94-2.64-5.93a1 1 0 01.54-1.31zm10.8 93.9a1 1 0 01-.35-1.37 73.16 73.16 0 003.16-5.97 1 1 0 111.81.86 75.25 75.25 0 01-3.25 6.13 1 1 0 01-1.37.35zm-3.5-78.33a1 1 0 011.36.41c.5.95 1.01 1.9 1.52 2.82.43.77.86 1.55 1.28 2.34a1 1 0 11-1.76.94c-.42-.77-.84-1.55-1.27-2.31l-1.54-2.85a1 1 0 01.41-1.35zm-7.7-148.62a1 1 0 01-.22-1.4 45.45 45.45 0 014.27-5.06 1 1 0 011.43 1.4 43.38 43.38 0 00-4.08 4.84 1 1 0 01-1.4.22zm5.48 80.34a1 1 0 01.92-1.08c1.15-.08 2.32-.08 3.5 0 1.27.1 2.4.37 3.38.8a1 1 0 01-.81 1.83 8.04 8.04 0 00-2.72-.63c-1.09-.08-2.16-.08-3.2 0a1 1 0 01-1.07-.92zm1.64 20.71a1 1 0 011.06-.94c1.55.08 3.05-.08 4.36-.5a1 1 0 11.6 1.91c-1.58.5-3.33.68-5.07.58a1 1 0 01-.95-1.05zm7.38 60.61a1 1 0 011.32.5 112.8 112.8 0 012.12 4.9 1 1 0 01-1.85.75 110.7 110.7 0 00-2.08-4.82 1 1 0 01.49-1.33zm4.38 48.76a1 1 0 01-.61-1.28c.38-1.08.74-2.16 1.09-3.22.27-.82.51-1.65.72-2.48a1 1 0 111.94.5c-.22.87-.48 1.74-.76 2.6a153.6 153.6 0 01-1.1 3.27 1 1 0 01-1.28.6zm.75-35.6a1 1 0 011.24.68c.5 1.73.94 3.47 1.31 5.22a1 1 0 01-1.96.4 69.8 69.8 0 00-1.27-5.06 1 1 0 01.69-1.24zm2.7 21.15a1 1 0 01-.94-1.05c.1-1.73.09-3.46 0-5.2a1 1 0 111.99-.1c.1 1.8.1 3.6 0 5.4a1 1 0 01-1.05.95zm-4.48-99.88a1 1 0 01-.78-1.18c.13-.63.19-1.34.14-2.13a37.17 37.17 0 00-.27-3.04 1 1 0 011.98-.28c.15 1.07.23 2.15.29 3.22.05.94-.01 1.81-.18 2.63a1 1 0 01-1.18.78zm-5.31-107.8a1 1 0 01.46-1.33c1.01-.49 2.05-.91 3.12-1.27 1.37-.46 2.71-.88 4.04-1.25a1 1 0 11.54 1.92c-1.3.37-2.6.77-3.94 1.22-.99.33-1.95.73-2.89 1.18a1 1 0 01-1.33-.46zm20.59-5.3a1 1 0 01.9-1.1c1.38-.13 2.78-.23 4.21-.3a1 1 0 01.1 1.99c-1.4.08-2.78.17-4.12.3a1 1 0 01-1.1-.9zM171.68 132.42a1.5 1.5 0 01-.49-2.06 20.6 20.6 0 017.17-7.29 21.78 21.78 0 01-7.12-6.62 1.5 1.5 0 012.52-1.62c2.3 3.58 6.29 5.91 7.95 6.6.04.01.09.03.13.06.08.02.25.06.44.16a1.52 1.52 0 01.46 2.26c-.1.15-.27.3-.35.38l-.02.02c-.13.13-.28.24-.45.3-3.68 1.62-6.07 3.92-8.17 7.33a1.5 1.5 0 01-2.07.48z" fill="#fff"/>
  <path fill-rule="evenodd" clip-rule="evenodd" d="M474.87 531.75a.88.88 0 01-1.25-1.25l1.87-1.87a.88.88 0 111.25 1.25l-1.87 1.87zm-5.61-1.87a.88.88 0 011.25-1.25l1.87 1.87a.88.88 0 11-1.25 1.25l-1.87-1.87zm4.36 4.36a.88.88 0 111.25-1.25l1.87 1.88a.88.88 0 01-1.25 1.24l-1.87-1.87zm-4.36 1.87c.34.35.9.35 1.25 0l1.87-1.87a.88.88 0 10-1.25-1.25l-1.87 1.88a.88.88 0 000 1.24zM548.87 240.75a.88.88 0 01-1.25-1.25l1.87-1.87a.88.88 0 111.25 1.25l-1.87 1.87zm-5.61-1.87a.88.88 0 011.25-1.25l1.87 1.87a.88.88 0 11-1.25 1.25l-1.87-1.87zm4.36 4.36a.88.88 0 111.25-1.25l1.87 1.88a.88.88 0 01-1.25 1.24l-1.87-1.87zm-4.36 1.87c.34.35.9.35 1.25 0l1.87-1.87a.88.88 0 10-1.25-1.25l-1.87 1.88a.88.88 0 000 1.24zM495.87 522.75a.88.88 0 01-1.25-1.25l1.87-1.87a.88.88 0 111.25 1.25l-1.87 1.87zm-5.61-1.87a.88.88 0 011.25-1.25l1.87 1.87a.88.88 0 11-1.25 1.25l-1.87-1.87zm4.36 4.36a.88.88 0 111.25-1.25l1.87 1.88a.88.88 0 01-1.25 1.24l-1.87-1.87zm-4.36 1.87c.34.35.9.35 1.25 0l1.87-1.87a.88.88 0 10-1.25-1.25l-1.87 1.88a.88.88 0 000 1.24z" fill="#FFB700"/>
  <path fill-rule="evenodd" clip-rule="evenodd" d="M451.33 487.7H464v12.67h-12.67V487.7z" fill="#FF46FB"/>
  <path fill-rule="evenodd" clip-rule="evenodd" d="M438.67 487.7h12.66v12.67h-12.66V487.7z" fill="#CA41FC"/>
  <path fill-rule="evenodd" clip-rule="evenodd" d="M426 487.7h12.67v12.67H426V487.7z" fill="#8B48FE"/>
  <path fill-rule="evenodd" clip-rule="evenodd" d="M464 475.04h-12.67v12.66H464v-12.66z" fill="#81E650"/>
  <path fill-rule="evenodd" clip-rule="evenodd" d="M451.33 475.04h-12.66v12.66h12.66v-12.66z" fill="#00D267"/>
  <path fill-rule="evenodd" clip-rule="evenodd" d="M438.67 475.04H426v12.66h12.67v-12.66z" fill="#00C0FF"/>
  <path fill-rule="evenodd" clip-rule="evenodd" d="M451.33 462.37H464v12.67h-12.67v-12.67z" fill="#FFD200"/>
  <path fill-rule="evenodd" clip-rule="evenodd" d="M438.67 462.37h12.66v12.67h-12.66v-12.67z" fill="#FF8E00"/>
  <path fill-rule="evenodd" clip-rule="evenodd" d="M426 462.37h12.67v12.67H426v-12.67z" fill="#FF5400"/>
  <rect x="160" y="482.37" width="134" height="56" rx="2.79" fill="#F4F4F4"/>
  <rect x="171.14" y="499.23" width="22.28" height="22.28" rx="4" fill="#0FC0C5"/>
  <path fill-rule="evenodd" clip-rule="evenodd" d="M186.46 515.94v-7.66h.7v8.36H176.7V504.1h8.36v.7h-7.66v11.14h9.05zm-4.18-6.96l4.88-4.88 1.4 1.4-4.88 4.87h-1.4v-1.4zm-.7 1.4H178.12v.69h1.39v3.48h-1.4v.7H181.6v-.7h-1.4v-3.48h1.4v-.7z" fill="#fff"/>
  <path d="M205.6 514.87v-8.8h5.52v1.67h-3.53v1.77h3v1.66h-3v2.03h3.66v1.67h-5.64zM215.1 515.03c-.41 0-.8-.08-1.13-.24-.34-.16-.63-.4-.87-.69-.23-.3-.42-.67-.55-1.1a5.25 5.25 0 01.04-2.95c.16-.43.37-.8.62-1.1.26-.3.56-.53.89-.7a2.4 2.4 0 011.97-.05c.24.13.48.3.72.51l-.08-1.02v-2.28h1.98v9.46h-1.62l-.13-.66h-.06c-.23.23-.5.43-.82.6-.32.15-.64.22-.96.22zm.51-1.62c.22 0 .41-.04.58-.13.18-.1.35-.25.52-.48v-2.73a1.59 1.59 0 00-1.11-.44c-.32 0-.6.16-.84.46-.24.3-.36.77-.36 1.4 0 .67.1 1.16.3 1.46.22.31.53.46.91.46zM220.45 514.87v-6.7h1.98v6.7h-1.98zm.98-7.68c-.33 0-.6-.1-.82-.28a.98.98 0 01-.32-.76c0-.3.1-.55.32-.74.22-.2.5-.29.82-.29.35 0 .62.1.83.29.21.19.32.43.32.74 0 .3-.1.56-.32.76-.21.19-.48.28-.83.28zM226.76 515.03c-.42 0-.77-.06-1.07-.19a1.93 1.93 0 01-1.12-1.33 4.39 4.39 0 01-.12-1.07v-2.71h-.92v-1.47l1.03-.08.23-1.79h1.64v1.79h1.61v1.55h-1.6v2.68c0 .38.07.66.22.83.16.16.38.24.64.24a2.12 2.12 0 00.63-.13l.31 1.44-.63.16c-.25.06-.53.08-.85.08zM232.21 514.87v-8.8h3.03c.48 0 .94.05 1.36.15.42.09.8.24 1.1.47.32.22.57.5.75.88.19.36.28.8.28 1.33 0 .52-.1.96-.28 1.34-.18.38-.43.69-.74.93-.32.25-.68.43-1.1.54-.41.12-.85.18-1.32.18h-1.1v2.98h-1.98zm1.99-4.56h.97c1.08 0 1.62-.47 1.62-1.4 0-.47-.15-.79-.43-.98-.3-.19-.7-.28-1.25-.28h-.91v2.66zM240.25 514.87v-8.8h2.49c.67 0 1.28.08 1.82.25a3.4 3.4 0 012.28 2.15c.2.55.31 1.2.31 1.96 0 .75-.1 1.41-.3 1.97-.22.56-.5 1.02-.89 1.4-.37.35-.83.62-1.36.8-.52.18-1.1.27-1.75.27h-2.6zm1.99-1.6h.38c.37 0 .72-.05 1.02-.15.3-.1.57-.26.79-.48.21-.22.38-.51.5-.87s.18-.81.18-1.34c0-.52-.06-.96-.19-1.31a2.02 2.02 0 00-.5-.85 1.8 1.8 0 00-.78-.46c-.3-.09-.65-.13-1.02-.13h-.38v5.58zM248.82 514.87v-8.8h5.55v1.67h-3.56v2.04h3.05v1.68h-3.05v3.41h-1.99z" fill="#1A1A1A"/>
  <rect x="337" y="191" width="189" height="57" rx="2.81" fill="#F4F4F4"/>
  <rect x="348.24" y="207.76" width="22.49" height="22.49" rx="4" fill="#3D99F5"/>
  <path fill-rule="evenodd" clip-rule="evenodd" d="M360.9 212.68h-7.73V222.5h4.91V225.32h7.73V215.5h-4.92V212.68zm4.21 3.51h-4.22v3.51h3.52v.7h-3.52v.71h3.52v.7h-3.52v.7h3.52v.7h-4.92v-.7h-.7v2.11h6.32v-8.43zm-4.92 4.92v.7H353.87v-8.43h6.32v7.73z" fill="#fff"/>
  <path d="M386.07 223.81a3.86 3.86 0 01-3.77-2.55 5.47 5.47 0 01-.32-1.95c0-.73.11-1.38.34-1.95a4.4 4.4 0 01.9-1.46c.38-.4.82-.7 1.32-.9.5-.2 1.04-.31 1.6-.31s1.07.12 1.52.35c.45.22.83.49 1.12.8l-1.05 1.26a3.1 3.1 0 00-.71-.5 1.88 1.88 0 00-1.69 0c-.26.13-.5.31-.69.56-.19.24-.34.54-.46.89-.1.35-.16.75-.16 1.19 0 .9.2 1.61.58 2.12.39.5.9.74 1.55.74.36 0 .68-.08.96-.23.29-.16.54-.36.76-.6l1.05 1.25a3.57 3.57 0 01-2.85 1.3zM392.97 223.81a3.28 3.28 0 01-2.28-.92c-.3-.3-.54-.66-.72-1.09a3.93 3.93 0 01-.27-1.5c0-.55.1-1.05.27-1.48a3.1 3.1 0 011.77-1.78 3.22 3.22 0 014.21 1.78c.18.43.27.93.27 1.48 0 .56-.09 1.06-.27 1.5a3.24 3.24 0 01-2.98 2.01zm0-1.6a1 1 0 00.92-.52c.2-.34.3-.8.3-1.39 0-.58-.1-1.05-.3-1.39a1 1 0 00-.92-.51c-.41 0-.73.17-.93.51-.2.34-.3.8-.3 1.4 0 .58.1 1.04.3 1.38.2.35.52.52.93.52zM397.58 223.65v-6.7h1.62l.14.86h.05c.29-.27.6-.5.95-.7.34-.21.74-.32 1.2-.32.73 0 1.25.24 1.58.72.33.48.5 1.14.5 1.98v4.16h-1.99v-3.9c0-.49-.06-.82-.2-1-.13-.18-.33-.27-.62-.27-.25 0-.47.06-.65.18-.18.1-.38.26-.6.47v4.52h-1.98zM406.85 223.65l-2.26-6.7h2l.87 3.17.25 1.02c.1.34.18.69.27 1.04h.06a185.16 185.16 0 01.5-2.06l.89-3.16h1.9l-2.19 6.7h-2.3zM415.27 223.81c-.48 0-.93-.07-1.34-.23-.41-.16-.77-.39-1.08-.68-.3-.31-.55-.68-.72-1.11a4.01 4.01 0 01-.25-1.49 3.76 3.76 0 01.97-2.56 3.1 3.1 0 012.19-.95c.47 0 .89.09 1.24.25.36.16.66.38.89.67.24.29.42.63.54 1.03a4.37 4.37 0 01.1 2.14h-4.01c.08.49.28.85.59 1.08.31.23.7.34 1.15.34.47 0 .95-.15 1.44-.44l.66 1.2a4.37 4.37 0 01-2.37.75zm-1.49-4.24h2.42c0-.37-.09-.68-.26-.91-.17-.24-.46-.35-.86-.35-.32 0-.6.1-.84.3-.23.21-.39.53-.46.96zM419.26 223.65v-6.7h1.62l.13 1.18h.06c.24-.46.53-.8.87-1.01a1.9 1.9 0 011.49-.29c.12.02.24.05.34.1l-.33 1.71a3.16 3.16 0 00-.73-.1c-.25 0-.51.09-.8.27-.26.18-.49.5-.67.95v3.9h-1.98zM427.21 223.81c-.41 0-.77-.06-1.06-.19a1.93 1.93 0 01-1.12-1.33 4.39 4.39 0 01-.13-1.07v-2.71H424v-1.47l1.02-.08.23-1.79h1.65v1.79h1.6v1.55h-1.6v2.69c0 .37.08.65.23.82.16.16.37.24.63.24a2.12 2.12 0 00.63-.13l.32 1.44c-.18.06-.4.1-.64.16s-.52.08-.85.08zM432.67 223.65v-8.8h3.02c.49 0 .94.05 1.37.15.42.09.79.25 1.1.47.32.22.56.5.74.88.2.36.29.8.29 1.34 0 .5-.1.95-.29 1.33-.17.38-.42.69-.74.93a3.2 3.2 0 01-1.1.54c-.4.12-.85.18-1.31.18h-1.1v2.98h-1.98zm1.98-4.56h.98c1.07 0 1.62-.47 1.62-1.4 0-.46-.15-.79-.44-.98-.29-.19-.7-.28-1.24-.28h-.92v2.66zM440.71 223.65v-8.8h2.48c.68 0 1.29.09 1.83.26s1 .43 1.39.8c.38.34.68.8.89 1.34.2.55.3 1.2.3 1.96s-.1 1.41-.3 1.97c-.2.56-.5 1.02-.88 1.4-.38.35-.83.62-1.36.8-.52.18-1.11.27-1.76.27h-2.59zm1.99-1.6h.37c.38 0 .72-.05 1.03-.15.3-.1.57-.26.78-.48.22-.22.38-.51.5-.87.13-.36.19-.8.19-1.34 0-.52-.06-.96-.19-1.3a2.02 2.02 0 00-.5-.86 1.8 1.8 0 00-.78-.46c-.3-.09-.65-.13-1.03-.13h-.38v5.58zM449.28 223.65v-8.8h5.55v1.67h-3.57v2.04h3.06v1.68h-3.06v3.41h-1.98zM461.48 223.81c-.42 0-.77-.06-1.07-.19-.29-.12-.53-.3-.71-.52-.18-.23-.32-.5-.4-.81a4.4 4.4 0 01-.13-1.07v-2.71h-.92v-1.47l1.03-.08.23-1.79h1.64v1.79h1.61v1.55h-1.6v2.69c0 .37.07.65.22.82.17.16.38.24.64.24a2.13 2.13 0 00.64-.13l.3 1.44c-.18.06-.39.1-.63.16s-.53.08-.85.08zM466.7 223.81a3.28 3.28 0 01-2.28-.92c-.3-.3-.53-.66-.71-1.09a3.93 3.93 0 01-.27-1.5c0-.55.09-1.05.27-1.48.18-.44.42-.81.71-1.1.31-.3.66-.53 1.06-.68a3.22 3.22 0 014.2 1.78c.19.43.28.93.28 1.48 0 .56-.1 1.06-.27 1.5a3.24 3.24 0 01-2.98 2.01zm0-1.6a1 1 0 00.92-.52c.21-.34.31-.8.31-1.39 0-.58-.1-1.05-.3-1.39a1 1 0 00-.92-.51c-.42 0-.73.17-.94.51-.2.34-.3.8-.3 1.4 0 .58.1 1.04.3 1.38.21.35.52.52.94.52zM474.97 223.65l-1.64-8.8h2.04l.6 4.12a83.93 83.93 0 00.36 2.78h.05a390.25 390.25 0 01.53-2.78l.95-4.12h1.68l.95 4.12.25 1.37c.1.46.18.93.27 1.4h.06l.17-1.4.2-1.37.6-4.12h1.9l-1.56 8.8h-2.5l-.86-4a41.28 41.28 0 01-.35-2.03h-.06a82.42 82.42 0 01-.36 2.04l-.83 4h-2.45zM487.88 223.81a3.28 3.28 0 01-2.28-.92c-.3-.3-.54-.66-.72-1.09a3.93 3.93 0 01-.27-1.5c0-.55.1-1.05.27-1.48a3.1 3.1 0 011.77-1.78 3.22 3.22 0 014.21 1.78c.18.43.27.93.27 1.48 0 .56-.09 1.06-.27 1.5a3.24 3.24 0 01-2.98 2.01zm0-1.6a1 1 0 00.92-.52c.2-.34.3-.8.3-1.39 0-.58-.1-1.05-.3-1.39a1 1 0 00-.92-.51c-.42 0-.73.17-.93.51-.2.34-.3.8-.3 1.4 0 .58.1 1.04.3 1.38.2.35.51.52.93.52zM492.5 223.65v-6.7h1.61l.14 1.18h.05c.24-.46.54-.8.88-1.01a1.9 1.9 0 011.48-.29c.13.02.24.05.34.1l-.32 1.71a3.2 3.2 0 00-.73-.1c-.25 0-.52.09-.8.27-.27.18-.5.5-.67.95v3.9h-1.99zM500.13 223.81c-.42 0-.8-.08-1.14-.24-.33-.16-.62-.4-.86-.69-.23-.3-.42-.67-.55-1.1a5.25 5.25 0 01.04-2.95c.16-.43.37-.8.62-1.1.26-.3.56-.53.89-.7a2.4 2.4 0 011.97-.05c.24.13.48.3.71.52l-.08-1.03v-2.28h1.99v9.46h-1.62l-.14-.66h-.05c-.23.23-.5.43-.82.6-.32.15-.64.22-.96.22zm.51-1.62c.22 0 .41-.04.58-.13.18-.1.35-.25.51-.47v-2.74a1.58 1.58 0 00-1.1-.44c-.32 0-.6.16-.84.46-.24.3-.36.77-.36 1.4 0 .67.1 1.16.3 1.47.22.3.52.45.91.45z" fill="#1A1A1A"/>
  <rect x="115" y="416.37" width="131" height="56" rx="2.79" fill="#F4F4F4"/>
  <rect x="126.14" y="433.23" width="22.28" height="22.28" rx="4" fill="#7961F2"/>
  <path fill-rule="evenodd" clip-rule="evenodd" d="M131.71 438.1v9.06h2.79v-6.27h9.05v10.44h-9.05v-3.48h-3.48v-10.44h9.05v3.48h-.7v-2.79h-7.66zm3.48 12.54v-9.06h7.66v9.06h-7.66zm4.18-4.18h2.1v.7h-2.1v2.08h-.7v-2.08h-2.08v-.7h2.09v-2.09h.7v2.09z" fill="#fff"/>
  <path d="M160.6 448.87v-8.8h2.18l1.42 3.91.26.81.25.81h.05c.1-.27.18-.54.25-.8l.25-.82 1.4-3.91h2.16v8.8H167v-3.23a10.46 10.46 0 01.1-1.5 111.48 111.48 0 01.15-1.5h-.05l-.72 2.1-1.25 3.36h-1.1l-1.25-3.36-.7-2.1h-.06a34.14 34.14 0 01.23 2.29l.03.71v3.23h-1.78zM173.73 449.03c-.48 0-.93-.07-1.34-.23-.41-.16-.77-.39-1.08-.69-.3-.3-.55-.67-.72-1.1a4.01 4.01 0 01-.25-1.49 3.76 3.76 0 01.97-2.56 3.1 3.1 0 012.19-.95c.47 0 .89.08 1.24.25.36.16.66.38.89.67.24.29.42.63.54 1.03a4.37 4.37 0 01.1 2.14h-4.02c.1.49.3.85.6 1.08.31.23.7.34 1.15.34.47 0 .95-.15 1.44-.44l.66 1.2a4.37 4.37 0 01-2.37.75zm-1.49-4.24h2.42c0-.37-.09-.68-.26-.91-.17-.24-.46-.36-.86-.36-.32 0-.6.1-.84.31-.23.21-.39.53-.46.96zM177.72 448.87v-6.7h1.62l.13 1.18h.06c.24-.46.53-.8.87-1.01a1.9 1.9 0 011.49-.29c.12.02.24.05.34.1l-.33 1.71a3.2 3.2 0 00-.73-.1c-.25 0-.52.08-.8.26-.27.18-.49.5-.67.96v3.9h-1.98zM185.35 451.72c-.4 0-.76-.04-1.1-.1a3.24 3.24 0 01-.9-.3 1.61 1.61 0 01-.59-.53 1.36 1.36 0 01-.22-.77c0-.54.32-1 .96-1.35v-.06a1.5 1.5 0 01-.44-.44 1.24 1.24 0 01-.18-.69c0-.24.07-.47.22-.69.14-.22.32-.41.54-.56v-.06a2.04 2.04 0 01-.9-1.74 2.27 2.27 0 011.72-2.27 3.62 3.62 0 012.08.01h2.44v1.45h-1.06a1.77 1.77 0 01.22.88c0 .38-.07.72-.2 1-.14.29-.33.52-.58.71-.23.18-.5.32-.83.4-.32.1-.66.14-1.03.14-.26 0-.53-.04-.8-.13a.68.68 0 00-.2.21.64.64 0 00-.05.29c0 .17.07.3.21.37.16.08.42.13.8.13h1.08c.83 0 1.46.13 1.9.4.43.26.65.7.65 1.3 0 .35-.09.67-.27.95-.17.3-.42.55-.74.76a3.8 3.8 0 01-1.18.5c-.45.13-.97.19-1.55.19zm.15-6.17c.26 0 .48-.09.65-.27.18-.19.27-.47.27-.85 0-.35-.1-.62-.27-.8a.84.84 0 00-.65-.28.9.9 0 00-.66.27c-.17.18-.26.45-.26.8 0 .39.09.67.26.86.18.18.4.27.66.27zm.16 4.93c.45 0 .82-.08 1.11-.25.29-.15.43-.34.43-.58 0-.2-.09-.34-.27-.41-.17-.08-.42-.11-.75-.11h-.7a4.76 4.76 0 01-.94-.08c-.24.21-.36.43-.36.66 0 .25.13.44.4.56.27.14.63.2 1.08.2zM192.93 449.03c-.47 0-.92-.07-1.33-.23-.42-.16-.78-.39-1.08-.69-.3-.3-.55-.67-.72-1.1a4.01 4.01 0 01-.25-1.49 3.76 3.76 0 01.97-2.56 3.1 3.1 0 012.19-.95c.47 0 .89.08 1.24.25.36.16.65.38.89.67.24.29.42.63.54 1.03a4.37 4.37 0 01.1 2.14h-4.02c.1.49.3.85.6 1.08.31.23.7.34 1.14.34.48 0 .96-.15 1.45-.44l.66 1.2a4.37 4.37 0 01-2.38.75zm-1.48-4.24h2.42c0-.37-.09-.68-.26-.91-.17-.24-.46-.36-.87-.36-.31 0-.59.1-.83.31s-.39.53-.46.96zM199.79 448.87v-8.8h3.02c.49 0 .94.05 1.37.15.42.09.79.24 1.1.47.32.22.57.5.75.88.19.36.28.8.28 1.33 0 .52-.1.96-.28 1.34-.18.38-.43.69-.75.93a3.2 3.2 0 01-1.09.54c-.41.12-.85.18-1.32.18h-1.1v2.98h-1.98zm1.98-4.56h.98c1.08 0 1.62-.47 1.62-1.4 0-.47-.15-.79-.44-.98-.28-.19-.7-.28-1.24-.28h-.92v2.66zM207.83 448.87v-8.8h2.48c.68 0 1.29.08 1.83.25.54.18 1 .44 1.39.8.38.35.68.8.89 1.35.2.55.31 1.2.31 1.96 0 .75-.1 1.41-.31 1.97-.2.56-.5 1.02-.88 1.4-.38.35-.83.62-1.36.8-.52.18-1.1.27-1.76.27h-2.59zm1.99-1.6h.37c.38 0 .72-.06 1.03-.15.3-.1.57-.26.78-.48.22-.22.38-.51.5-.87.13-.36.2-.81.2-1.34 0-.52-.07-.96-.2-1.31a2.02 2.02 0 00-.5-.85 1.8 1.8 0 00-.78-.46c-.3-.09-.65-.13-1.03-.13h-.37v5.58zM216.4 448.87v-8.8h5.55v1.67h-3.56v2.04h3.05v1.68h-3.06v3.41h-1.98z" fill="#1A1A1A"/>
  <rect x="408" y="293.37" width="147" height="57" rx="2.81" fill="#F4F4F4"/>
  <rect x="419.24" y="311.13" width="22.49" height="22.49" rx="4" fill="#F23030"/>
  <path fill-rule="evenodd" clip-rule="evenodd" d="M425.25 317.13l1.31 5.24-1.31 5.24 5.24-1.3 5.24 1.3-1.31-5.24 1.3-5.24-5.23 1.31-5.24-1.3zm-1.09-1.08l6.33 1.58 6.32-1.58-1.58 6.32 1.58 6.33-6.32-1.58-6.33 1.58 1.58-6.33-1.58-6.32z" fill="#fff"/>
  <path d="M457.07 325.77a3.86 3.86 0 01-3.77-2.55 5.47 5.47 0 01-.32-1.95c0-.73.11-1.38.34-1.95a4.4 4.4 0 01.9-1.46c.38-.4.82-.7 1.32-.9.5-.2 1.04-.31 1.6-.31s1.07.12 1.52.35c.45.23.83.49 1.12.8l-1.05 1.26a3.1 3.1 0 00-.71-.5 1.88 1.88 0 00-1.69 0c-.26.13-.5.32-.69.56-.19.24-.34.54-.46.89-.1.35-.16.75-.16 1.19 0 .9.2 1.61.58 2.12.39.5.9.74 1.55.74.36 0 .68-.08.96-.23.29-.16.54-.36.76-.6l1.05 1.25a3.57 3.57 0 01-2.85 1.3zM463.97 325.77c-.42 0-.83-.07-1.23-.22-.4-.17-.75-.4-1.05-.7-.3-.29-.54-.66-.72-1.09a3.93 3.93 0 01-.27-1.5c0-.55.1-1.05.27-1.48a3.1 3.1 0 011.77-1.78 3.22 3.22 0 014.21 1.78c.18.43.27.93.27 1.49 0 .55-.09 1.05-.27 1.5a3.24 3.24 0 01-2.98 2zm0-1.6a1 1 0 00.92-.52c.2-.34.3-.8.3-1.38 0-.59-.1-1.05-.3-1.4a1 1 0 00-.92-.5c-.41 0-.73.16-.93.5-.2.35-.3.81-.3 1.4 0 .58.1 1.04.3 1.38.2.35.52.52.93.52zM468.58 325.61v-6.7h1.62l.14.87h.05c.28-.28.58-.52.9-.71.3-.21.69-.31 1.13-.31.47 0 .86.1 1.14.3.3.18.54.45.7.81.3-.3.61-.56.94-.78.33-.22.72-.33 1.17-.33.72 0 1.25.24 1.58.72.34.48.51 1.14.51 1.97v4.16h-1.98v-3.9c0-.48-.07-.82-.2-1-.13-.18-.33-.27-.62-.27-.34 0-.72.22-1.15.65v4.52h-1.99v-3.9c0-.48-.06-.82-.2-1-.12-.18-.33-.27-.62-.27-.34 0-.72.22-1.13.65v4.52h-1.99zM480.16 328.1v-9.18h1.62l.13.66h.06c.26-.24.55-.43.87-.58a2.41 2.41 0 012.12 0c.33.16.6.39.83.69.22.3.4.65.51 1.08.13.41.19.87.19 1.39 0 .57-.08 1.09-.24 1.54-.16.44-.37.81-.64 1.13-.26.3-.56.54-.9.7-.34.16-.68.25-1.04.25-.29 0-.57-.06-.84-.18a2.8 2.8 0 01-.75-.53l.06 1.07v1.96h-1.98zm3.05-3.95c.34 0 .63-.15.88-.45.24-.32.36-.82.36-1.52 0-1.2-.39-1.8-1.16-1.8-.39 0-.77.2-1.15.6v2.74c.18.16.36.28.54.34.18.06.36.1.53.1zM487.9 325.61v-6.7h1.62l.13 1.18h.06c.24-.46.53-.8.87-1.01a1.9 1.9 0 011.49-.28c.12.01.24.05.34.09l-.33 1.71a3.2 3.2 0 00-.73-.1c-.25 0-.52.09-.8.27-.26.18-.49.5-.67.96v3.88h-1.98zM496.14 325.77a3.21 3.21 0 01-2.42-.92c-.3-.3-.54-.67-.71-1.1a4.01 4.01 0 01-.26-1.49 3.76 3.76 0 01.97-2.56 3.1 3.1 0 012.2-.94c.47 0 .88.08 1.23.24.36.16.66.38.9.67.24.3.42.63.53 1.03a4.37 4.37 0 01.1 2.15h-4.01c.09.48.29.84.6 1.07.3.23.7.34 1.14.34.48 0 .96-.15 1.44-.44l.67 1.2a4.37 4.37 0 01-2.38.75zm-1.48-4.23h2.41c0-.38-.08-.69-.25-.92-.18-.24-.46-.35-.87-.35-.31 0-.6.1-.83.3-.24.21-.4.53-.46.97zM502.1 325.77a4.2 4.2 0 01-2.56-.93l.89-1.24c.3.23.6.41.88.53.27.12.56.17.85.17.3 0 .5-.05.64-.15.14-.1.2-.23.2-.41 0-.11-.03-.2-.12-.29a.98.98 0 00-.3-.24 19.6 19.6 0 01-1.55-.67c-.21-.11-.4-.24-.57-.4a2.08 2.08 0 01-.42-.55c-.11-.22-.17-.46-.17-.74a1.89 1.89 0 01.7-1.51 3.23 3.23 0 011.86-.58c.52 0 .97.09 1.36.26.39.18.72.37 1.01.59l-.89 1.18a3.5 3.5 0 00-.71-.42c-.24-.1-.47-.14-.7-.14-.51 0-.76.17-.76.52 0 .11.03.2.1.29.08.07.17.14.29.2a6.34 6.34 0 00.92.36 5.7 5.7 0 011.21.66 1.7 1.7 0 01.6 1.36 1.94 1.94 0 01-.7 1.54 2.8 2.8 0 01-.87.45c-.34.11-.74.16-1.19.16zM508.09 325.77a4.2 4.2 0 01-2.56-.93l.88-1.24c.3.23.6.41.88.53.28.12.56.17.85.17.3 0 .51-.05.65-.15.13-.1.2-.23.2-.41 0-.11-.04-.2-.12-.29a.98.98 0 00-.31-.24 19.6 19.6 0 01-1.55-.67c-.21-.11-.4-.24-.57-.4a2.08 2.08 0 01-.42-.55c-.1-.22-.16-.46-.16-.74a1.89 1.89 0 01.7-1.51c.23-.19.5-.32.81-.42.32-.11.67-.17 1.06-.17.5 0 .96.1 1.34.27.4.18.73.37 1.02.59l-.9 1.18a3.5 3.5 0 00-.7-.42c-.24-.1-.48-.14-.71-.14-.5 0-.76.17-.76.52 0 .11.04.2.11.29.07.07.17.14.28.2a6.34 6.34 0 00.92.36 5.7 5.7 0 011.22.66 1.7 1.7 0 01.6 1.36 1.94 1.94 0 01-.7 1.54 2.8 2.8 0 01-.88.45c-.34.11-.73.16-1.18.16zM514.97 325.61v-8.8h3.02c.49 0 .94.05 1.36.15.43.09.8.25 1.11.47.32.22.56.51.74.88.2.36.29.8.29 1.34 0 .5-.1.95-.29 1.33-.18.38-.42.7-.74.93a3.2 3.2 0 01-1.1.54c-.4.12-.85.18-1.32.18h-1.09v2.98h-1.98zm1.98-4.56h.97c1.08 0 1.62-.47 1.62-1.4 0-.46-.14-.79-.43-.98-.29-.19-.7-.28-1.24-.28h-.92v2.66zM523 325.61v-8.8h2.5c.67 0 1.27.09 1.82.26.53.17 1 .43 1.38.8.4.34.69.8.9 1.34.2.55.3 1.2.3 1.96s-.1 1.41-.3 1.97c-.21.56-.5 1.02-.88 1.4-.38.35-.83.62-1.37.8-.52.18-1.1.27-1.75.27H523zm2-1.6h.37c.38 0 .72-.05 1.03-.15.3-.1.56-.26.78-.48.22-.22.38-.51.5-.87.13-.36.19-.8.19-1.34 0-.52-.07-.96-.2-1.3a2.02 2.02 0 00-.49-.86 1.8 1.8 0 00-.78-.46c-.3-.09-.65-.13-1.03-.13H525V324zM531.58 325.61v-8.8h5.55v1.68h-3.57v2.03h3.05v1.68h-3.05v3.41h-1.98z" fill="#1A1A1A"/>
  <path fill-rule="evenodd" clip-rule="evenodd" d="M500 94.37a2 2 0 100-4 2 2 0 000 4zm0 1a3 3 0 100-6 3 3 0 000 6z" fill="#FF5975"/>
  <path d="M482.61 75.52h0a.38.38 0 01.54-.54l.35-.35-.35.35 1.87 1.87a.38.38 0 01-.54.54l-1.87-1.87zm0 6.24l-.35.35.35-.35a.38.38 0 010-.54l-.35-.35.35.35 1.87-1.87a.38.38 0 11.54.54l-1.87 1.87.28.27-.28-.27a.38.38 0 01-.54 0zm4.9-4.37a.38.38 0 11-.53-.54l1.87-1.87-.36-.35.36.35a.38.38 0 11.54.54l-1.87 1.87zm-.53 2.5a.38.38 0 01.54-.54l1.87 1.87a.38.38 0 01-.54.54l-1.87-1.87zm73.52 143.48a2.5 2.5 0 11-5 0 2.5 2.5 0 015 0z" stroke="#05F"/>
</svg>
